REM DIRINDEX 1\2,1\3
REM DIRNAME cjc116,folder01,folder02
TITLE ""
FILE "Disc1Track02.mp3" MP3
  TRACK 01 AUDIO
    TITLE "0:"
    INDEX 01 00:00:00
  TRACK 02 AUDIO
    TITLE "3:cjc116_0200"
    INDEX 01 00:00:09
  TRACK 03 AUDIO
    TITLE "0:"
    INDEX 01 00:01:40
  TRACK 04 AUDIO
    TITLE "2:cjc116_0201"
    INDEX 01 00:02:16
  TRACK 05 AUDIO
    TITLE "0:"
    INDEX 01 00:03:55
  TRACK 06 AUDIO
    TITLE "2:cjc116_0202"
    INDEX 01 00:03:70
  TRACK 07 AUDIO
    TITLE "0:"
    INDEX 01 00:06:12
  TRACK 08 AUDIO
    TITLE "2:cjc116_0203"
    INDEX 01 00:06:41
  TRACK 09 AUDIO
    TITLE "0:"
    INDEX 01 00:08:09
  TRACK 10 AUDIO
    TITLE "2:cjc116_0204"
    INDEX 01 00:08:46
  TRACK 11 AUDIO
    TITLE "0:"
    INDEX 01 00:09:55
  TRACK 12 AUDIO
    TITLE "2:cjc116_0205"
    INDEX 01 00:09:71
  TRACK 13 AUDIO
    TITLE "0:"
    INDEX 01 00:12:03
  TRACK 14 AUDIO
    TITLE "2:cjc116_0206"
    INDEX 01 00:12:38
  TRACK 15 AUDIO
    TITLE "0:"
    INDEX 01 00:14:11
  TRACK 16 AUDIO
    TITLE "2:cjc116_0207"
    INDEX 01 00:14:47
  TRACK 17 AUDIO
    TITLE "0:"
    INDEX 01 00:15:62
  TRACK 18 AUDIO
    TITLE "2:cjc116_0208"
    INDEX 01 00:16:14
  TRACK 19 AUDIO
    TITLE "0:"
    INDEX 01 00:18:01
  TRACK 20 AUDIO
    TITLE "2:cjc116_0209"
    INDEX 01 00:18:25
  TRACK 21 AUDIO
    TITLE "0:"
    INDEX 01 00:20:39
  TRACK 22 AUDIO
    TITLE "2:cjc116_0210"
    INDEX 01 00:20:73
  TRACK 23 AUDIO
    TITLE "0:"
    INDEX 01 00:22:13
  TRACK 24 AUDIO
    TITLE "2:cjc116_0211"
    INDEX 01 00:22:32
  TRACK 25 AUDIO
    TITLE "0:"
    INDEX 01 00:24:06
  TRACK 26 AUDIO
    TITLE "2:cjc116_0212"
    INDEX 01 00:24:29
  TRACK 27 AUDIO
    TITLE "0:"
    INDEX 01 00:26:13
  TRACK 28 AUDIO
    TITLE "2:cjc116_0213"
    INDEX 01 00:26:50
  TRACK 29 AUDIO
    TITLE "0:"
    INDEX 01 00:27:59
  TRACK 30 AUDIO
    TITLE "2:cjc116_0214"
    INDEX 01 00:27:61
  TRACK 31 AUDIO
    TITLE "0:"
    INDEX 01 00:29:27
  TRACK 32 AUDIO
    TITLE "2:cjc116_0215"
    INDEX 01 00:29:46
  TRACK 33 AUDIO
    TITLE "0:"
    INDEX 01 00:31:00
  TRACK 34 AUDIO
    TITLE "2:cjc116_0216"
    INDEX 01 00:31:33
  TRACK 35 AUDIO
    TITLE "0:"
    INDEX 01 00:32:37
  TRACK 36 AUDIO
    TITLE "2:cjc116_0217"
    INDEX 01 00:32:56
  TRACK 37 AUDIO
    TITLE "0:"
    INDEX 01 00:34:26
  TRACK 38 AUDIO
    TITLE "2:cjc116_0218"
    INDEX 01 00:34:55
  TRACK 39 AUDIO
    TITLE "0:"
    INDEX 01 00:36:11
  TRACK 40 AUDIO
    TITLE "2:cjc116_0219"
    INDEX 01 00:36:44
  TRACK 41 AUDIO
    TITLE "0:"
    INDEX 01 00:37:46
  TRACK 42 AUDIO
    TITLE "2:cjc116_0220"
    INDEX 01 00:37:59
  TRACK 43 AUDIO
    TITLE "0:"
    INDEX 01 00:39:41
  TRACK 44 AUDIO
    TITLE "2:cjc116_0221"
    INDEX 01 00:39:72
  TRACK 45 AUDIO
    TITLE "0:"
    INDEX 01 00:41:40
  TRACK 46 AUDIO
    TITLE "2:cjc116_0222"
    INDEX 01 00:42:02
  TRACK 47 AUDIO
    TITLE "0:"
    INDEX 01 00:43:11
  TRACK 48 AUDIO
    TITLE "2:cjc116_0223"
    INDEX 01 00:43:19
  TRACK 49 AUDIO
    TITLE "0:"
    INDEX 01 00:44:56
  TRACK 50 AUDIO
    TITLE "2:cjc116_0224"
    INDEX 01 00:45:06
  TRACK 51 AUDIO
    TITLE "0:"
    INDEX 01 00:46:17
  TRACK 52 AUDIO
    TITLE "2:cjc116_0225"
    INDEX 01 00:46:56
  TRACK 53 AUDIO
    TITLE "0:"
    INDEX 01 00:47:64
  TRACK 54 AUDIO
    TITLE "2:cjc116_0226"
    INDEX 01 00:48:04
  TRACK 55 AUDIO
    TITLE "0:"
    INDEX 01 00:49:49
  TRACK 56 AUDIO
    TITLE "2:cjc116_0227"
    INDEX 01 00:50:01
  TRACK 57 AUDIO
    TITLE "0:"
    INDEX 01 00:51:22
  TRACK 58 AUDIO
    TITLE "2:cjc116_0228"
    INDEX 01 00:51:56
  TRACK 59 AUDIO
    TITLE "0:"
    INDEX 01 00:53:15
  TRACK 60 AUDIO
    TITLE "2:cjc116_0229"
    INDEX 01 00:53:29
  TRACK 61 AUDIO
    TITLE "0:"
    INDEX 01 00:55:30
  TRACK 62 AUDIO
    TITLE "2:cjc116_0230"
    INDEX 01 00:55:59
  TRACK 63 AUDIO
    TITLE "0:"
    INDEX 01 00:57:25
  TRACK 64 AUDIO
    TITLE "2:cjc116_0231"
    INDEX 01 00:57:60
  TRACK 65 AUDIO
    TITLE "0:"
    INDEX 01 00:58:60
  TRACK 66 AUDIO
    TITLE "2:cjc116_0232"
    INDEX 01 00:59:00
  TRACK 67 AUDIO
    TITLE "0:"
    INDEX 01 01:00:21
  TRACK 68 AUDIO
    TITLE "2:cjc116_0233"
    INDEX 01 01:00:49
  TRACK 69 AUDIO
    TITLE "0:"
    INDEX 01 01:02:20
  TRACK 70 AUDIO
    TITLE "2:cjc116_0234"
    INDEX 01 01:02:54
  TRACK 71 AUDIO
    TITLE "0:"
    INDEX 01 01:03:69
  TRACK 72 AUDIO
    TITLE "2:cjc116_0235"
    INDEX 01 01:04:09
  TRACK 73 AUDIO
    TITLE "0:"
    INDEX 01 01:05:48
  TRACK 74 AUDIO
    TITLE "2:cjc116_0236"
    INDEX 01 01:05:73
  TRACK 75 AUDIO
    TITLE "0:"
    INDEX 01 01:07:21
  TRACK 76 AUDIO
    TITLE "2:cjc116_0237"
    INDEX 01 01:07:59
  TRACK 77 AUDIO
    TITLE "0:"
    INDEX 01 01:08:58
  TRACK 78 AUDIO
    TITLE "2:cjc116_0238"
    INDEX 01 01:08:72
  TRACK 79 AUDIO
    TITLE "0:"
    INDEX 01 01:10:59
  TRACK 80 AUDIO
    TITLE "2:cjc116_0239"
    INDEX 01 01:11:21
  TRACK 81 AUDIO
    TITLE "0:"
    INDEX 01 01:13:22
  TRACK 82 AUDIO
    TITLE "2:cjc116_0240"
    INDEX 01 01:13:59
  TRACK 83 AUDIO
    TITLE "0:"
    INDEX 01 01:15:05
  TRACK 84 AUDIO
    TITLE "2:cjc116_0241"
    INDEX 01 01:15:17
  TRACK 85 AUDIO
    TITLE "0:"
    INDEX 01 01:16:61
  TRACK 86 AUDIO
    TITLE "2:cjc116_0242"
    INDEX 01 01:17:10
  TRACK 87 AUDIO
    TITLE "0:"
    INDEX 01 01:19:09
  TRACK 88 AUDIO
    TITLE "2:cjc116_0243"
    INDEX 01 01:19:44
  TRACK 89 AUDIO
    TITLE "0:"
    INDEX 01 01:20:53
  TRACK 90 AUDIO
    TITLE "2:cjc116_0244"
    INDEX 01 01:20:59
  TRACK 91 AUDIO
    TITLE "0:"
    INDEX 01 01:22:41
  TRACK 92 AUDIO
    TITLE "2:cjc116_0245"
    INDEX 01 01:22:66
  TRACK 93 AUDIO
    TITLE "0:"
    INDEX 01 01:24:63
  TRACK 94 AUDIO
    TITLE "2:cjc116_0246"
    INDEX 01 01:25:25
  TRACK 95 AUDIO
    TITLE "0:"
    INDEX 01 01:26:34
  TRACK 96 AUDIO
    TITLE "2:cjc116_0247"
    INDEX 01 01:26:42
  TRACK 97 AUDIO
    TITLE "0:"
    INDEX 01 01:28:20
  TRACK 98 AUDIO
    TITLE "2:cjc116_0248"
    INDEX 01 01:28:47
  TRACK 99 AUDIO
    TITLE "0:"
    INDEX 01 01:30:34
  TRACK 100 AUDIO
    TITLE "2:cjc116_0249"
    INDEX 01 01:30:69
  TRACK 101 AUDIO
    TITLE "0:"
    INDEX 01 01:31:73
  TRACK 102 AUDIO
    TITLE "2:cjc116_0250"
    INDEX 01 01:32:12
  TRACK 103 AUDIO
    TITLE "0:"
    INDEX 01 01:33:66
  TRACK 104 AUDIO
    TITLE "2:cjc116_0251"
    INDEX 01 01:34:28
  TRACK 105 AUDIO
    TITLE "0:"
    INDEX 01 01:36:23
  TRACK 106 AUDIO
    TITLE "2:cjc116_0252"
    INDEX 01 01:36:62
  TRACK 107 AUDIO
    TITLE "0:"
    INDEX 01 01:38:06
  TRACK 108 AUDIO
    TITLE "2:cjc116_0253"
    INDEX 01 01:38:22
  TRACK 109 AUDIO
    TITLE "0:"
    INDEX 01 01:39:57
  TRACK 110 AUDIO
    TITLE "2:cjc116_0254"
    INDEX 01 01:40:19
  TRACK 111 AUDIO
    TITLE "0:"
    INDEX 01 01:42:00
  TRACK 112 AUDIO
    TITLE "2:cjc116_0255"
    INDEX 01 01:42:37
  TRACK 113 AUDIO
    TITLE "0:"
    INDEX 01 01:43:39
  TRACK 114 AUDIO
    TITLE "2:cjc116_0256"
    INDEX 01 01:43:56
  TRACK 115 AUDIO
    TITLE "0:"
    INDEX 01 01:45:18
  TRACK 116 AUDIO
    TITLE "2:cjc116_0257"
    INDEX 01 01:45:45
  TRACK 117 AUDIO
    TITLE "0:"
    INDEX 01 01:47:72
  TRACK 118 AUDIO
    TITLE "2:cjc116_0258"
    INDEX 01 01:48:36
  TRACK 119 AUDIO
    TITLE "0:"
    INDEX 01 01:49:63
  TRACK 120 AUDIO
    TITLE "2:cjc116_0259"
    INDEX 01 01:50:02
  TRACK 121 AUDIO
    TITLE "0:"
    INDEX 01 01:51:52
  TRACK 122 AUDIO
    TITLE "2:cjc116_0260"
    INDEX 01 01:52:02
  TRACK 123 AUDIO
    TITLE "0:"
    INDEX 01 01:54:19
  TRACK 124 AUDIO
    TITLE "2:cjc116_0261"
    INDEX 01 01:54:54
  TRACK 125 AUDIO
    TITLE "0:"
    INDEX 01 01:55:71
  TRACK 126 AUDIO
    TITLE "2:cjc116_0262"
    INDEX 01 01:56:12
  TRACK 127 AUDIO
    TITLE "0:"
    INDEX 01 01:58:09
  TRACK 128 AUDIO
    TITLE "2:cjc116_0263"
    INDEX 01 01:58:36
  TRACK 129 AUDIO
    TITLE "0:"
    INDEX 01 01:59:63
  TRACK 130 AUDIO
    TITLE "2:cjc116_0264"
    INDEX 01 02:00:20
  TRACK 131 AUDIO
    TITLE "0:"
    INDEX 01 02:01:27
  TRACK 132 AUDIO
    TITLE "2:cjc116_0265"
    INDEX 01 02:01:48
  TRACK 133 AUDIO
    TITLE "0:"
    INDEX 01 02:03:38
  TRACK 134 AUDIO
    TITLE "2:cjc116_0266"
    INDEX 01 02:03:61
  TRACK 135 AUDIO
    TITLE "0:"
    INDEX 01 02:05:40
  TRACK 136 AUDIO
    TITLE "2:cjc116_0267"
    INDEX 01 02:06:03
  TRACK 137 AUDIO
    TITLE "0:"
    INDEX 01 02:07:16
  TRACK 138 AUDIO
    TITLE "2:cjc116_0268"
    INDEX 01 02:07:35
  TRACK 139 AUDIO
    TITLE "0:"
    INDEX 01 02:09:36
  TRACK 140 AUDIO
    TITLE "2:cjc116_0269"
    INDEX 01 02:09:68
  TRACK 141 AUDIO
    TITLE "0:"
    INDEX 01 02:12:19
  TRACK 142 AUDIO
    TITLE "2:cjc116_0270"
    INDEX 01 02:12:54
  TRACK 143 AUDIO
    TITLE "0:"
    INDEX 01 02:13:67
  TRACK 144 AUDIO
    TITLE "2:cjc116_0271"
    INDEX 01 02:14:12
  TRACK 145 AUDIO
    TITLE "0:"
    INDEX 01 02:16:62
  TRACK 146 AUDIO
    TITLE "2:cjc116_0272"
    INDEX 01 02:17:14
  TRACK 147 AUDIO
    TITLE "0:"
    INDEX 01 02:19:52
  TRACK 148 AUDIO
    TITLE "2:cjc116_0273"
    INDEX 01 02:20:14
  TRACK 149 AUDIO
    TITLE "0:"
    INDEX 01 02:21:30
  TRACK 150 AUDIO
    TITLE "2:cjc116_0274"
    INDEX 01 02:21:47
  TRACK 151 AUDIO
    TITLE "0:"
    INDEX 01 02:23:52
  TRACK 152 AUDIO
    TITLE "2:cjc116_0275"
    INDEX 01 02:24:02
  TRACK 153 AUDIO
    TITLE "0:"
    INDEX 01 02:26:01
  TRACK 154 AUDIO
    TITLE "2:cjc116_0276"
    INDEX 01 02:26:39
  TRACK 155 AUDIO
    TITLE "0:"
    INDEX 01 02:27:48
  TRACK 156 AUDIO
    TITLE "2:cjc116_0277"
    INDEX 01 02:27:69
  TRACK 157 AUDIO
    TITLE "0:"
    INDEX 01 02:29:51
  TRACK 158 AUDIO
    TITLE "2:cjc116_0278"
    INDEX 01 02:30:09
  TRACK 159 AUDIO
    TITLE "0:"
    INDEX 01 02:31:71
  TRACK 160 AUDIO
    TITLE "2:cjc116_0279"
    INDEX 01 02:32:33
  TRACK 161 AUDIO
    TITLE "0:"
    INDEX 01 02:33:45
  TRACK 162 AUDIO
    TITLE "2:cjc116_0280"
    INDEX 01 02:33:64
  TRACK 163 AUDIO
    TITLE "0:"
    INDEX 01 02:35:36
  TRACK 164 AUDIO
    TITLE "2:cjc116_0281"
    INDEX 01 02:35:69
  TRACK 165 AUDIO
    TITLE "0:"
    INDEX 01 02:37:17
  TRACK 166 AUDIO
    TITLE "2:cjc116_0282"
    INDEX 01 02:37:58
  TRACK 167 AUDIO
    TITLE "0:"
    INDEX 01 02:38:55
  TRACK 168 AUDIO
    TITLE "2:cjc116_0283"
    INDEX 01 02:38:67
  TRACK 169 AUDIO
    TITLE "0:"
    INDEX 01 02:40:37
  TRACK 170 AUDIO
    TITLE "2:cjc116_0284"
    INDEX 01 02:40:64
  TRACK 171 AUDIO
    TITLE "0:"
    INDEX 01 02:42:30
  TRACK 172 AUDIO
    TITLE "2:cjc116_0285"
    INDEX 01 02:42:67
  TRACK 173 AUDIO
    TITLE "0:"
    INDEX 01 02:43:64
  TRACK 174 AUDIO
    TITLE "2:cjc116_0286"
    INDEX 01 02:44:07
  TRACK 175 AUDIO
    TITLE "0:"
    INDEX 01 02:45:28
  TRACK 176 AUDIO
    TITLE "2:cjc116_0287"
    INDEX 01 02:45:56
  TRACK 177 AUDIO
    TITLE "0:"
    INDEX 01 02:47:11
  TRACK 178 AUDIO
    TITLE "2:cjc116_0288"
    INDEX 01 02:47:49
  TRACK 179 AUDIO
    TITLE "0:"
    INDEX 01 02:48:56
  TRACK 180 AUDIO
    TITLE "2:cjc116_0289"
    INDEX 01 02:48:72
  TRACK 181 AUDIO
    TITLE "0:"
    INDEX 01 02:50:35
  TRACK 182 AUDIO
    TITLE "2:cjc116_0290"
    INDEX 01 02:50:68
  TRACK 183 AUDIO
    TITLE "0:"
    INDEX 01 02:52:63
  TRACK 184 AUDIO
    TITLE "2:cjc116_0291"
    INDEX 01 02:53:26
  TRACK 185 AUDIO
    TITLE "0:"
    INDEX 01 02:54:37
  TRACK 186 AUDIO
    TITLE "2:cjc116_0292"
    INDEX 01 02:54:54
  TRACK 187 AUDIO
    TITLE "0:"
    INDEX 01 02:57:00
  TRACK 188 AUDIO
    TITLE "2:cjc116_0293"
    INDEX 01 02:57:27
  TRACK 189 AUDIO
    TITLE "0:"
    INDEX 01 02:59:63
  TRACK 190 AUDIO
    TITLE "2:cjc116_0294"
    INDEX 01 03:00:26
  TRACK 191 AUDIO
    TITLE "0:"
    INDEX 01 03:01:33
  TRACK 192 AUDIO
    TITLE "2:cjc116_0295"
    INDEX 01 03:01:47
  TRACK 193 AUDIO
    TITLE "0:"
    INDEX 01 03:03:42
  TRACK 194 AUDIO
    TITLE "2:cjc116_0296"
    INDEX 01 03:03:69
  TRACK 195 AUDIO
    TITLE "0:"
    INDEX 01 03:05:46
  TRACK 196 AUDIO
    TITLE "2:cjc116_0297"
    INDEX 01 03:06:09
  TRACK 197 AUDIO
    TITLE "0:"
    INDEX 01 03:07:04
  TRACK 198 AUDIO
    TITLE "2:cjc116_0298"
    INDEX 01 03:07:28
  TRACK 199 AUDIO
    TITLE "0:"
    INDEX 01 03:09:03
  TRACK 200 AUDIO
    TITLE "2:cjc116_0299"
    INDEX 01 03:09:34
  TRACK 201 AUDIO
    TITLE "0:"
    INDEX 01 03:11:18
  TRACK 202 AUDIO
    TITLE "2:cjc116_0300"
    INDEX 01 03:11:57
  TRACK 203 AUDIO
    TITLE "0:"
    INDEX 01 03:12:60
  TRACK 204 AUDIO
    TITLE "2:cjc116_0301"
    INDEX 01 03:13:03
  TRACK 205 AUDIO
    TITLE "0:"
    INDEX 01 03:15:02
  TRACK 206 AUDIO
    TITLE "2:cjc116_0302"
    INDEX 01 03:15:43
  TRACK 207 AUDIO
    TITLE "0:"
    INDEX 01 03:17:48
  TRACK 208 AUDIO
    TITLE "2:cjc116_0303"
    INDEX 01 03:18:14
  TRACK 209 AUDIO
    TITLE "0:"
    INDEX 01 03:19:13
  TRACK 210 AUDIO
    TITLE "2:cjc116_0304"
    INDEX 01 03:19:35
  TRACK 211 AUDIO
    TITLE "0:"
    INDEX 01 03:21:49
  TRACK 212 AUDIO
    TITLE "2:cjc116_0305"
    INDEX 01 03:22:02
  TRACK 213 AUDIO
    TITLE "0:"
    INDEX 01 03:24:11
  TRACK 214 AUDIO
    TITLE "2:cjc116_0306"
    INDEX 01 03:24:56
  TRACK 215 AUDIO
    TITLE "0:"
    INDEX 01 03:25:37
  TRACK 216 AUDIO
    TITLE "2:cjc116_0307"
    INDEX 01 03:25:63
  TRACK 217 AUDIO
    TITLE "0:"
    INDEX 01 03:27:30
  TRACK 218 AUDIO
    TITLE "2:cjc116_0308"
    INDEX 01 03:27:60
  TRACK 219 AUDIO
    TITLE "0:"
    INDEX 01 03:29:25
  TRACK 220 AUDIO
    TITLE "2:cjc116_0309"
    INDEX 01 03:29:65
  TRACK 221 AUDIO
    TITLE "0:"
    INDEX 01 03:30:74
  TRACK 222 AUDIO
    TITLE "2:cjc116_0310"
    INDEX 01 03:31:13
  TRACK 223 AUDIO
    TITLE "0:"
    INDEX 01 03:32:61
  TRACK 224 AUDIO
    TITLE "2:cjc116_0311"
    INDEX 01 03:33:11
  TRACK 225 AUDIO
    TITLE "0:"
    INDEX 01 03:34:66
  TRACK 226 AUDIO
    TITLE "2:cjc116_0312"
    INDEX 01 03:35:30
  TRACK 227 AUDIO
    TITLE "0:"
    INDEX 01 03:36:45
  TRACK 228 AUDIO
    TITLE "2:cjc116_0313"
    INDEX 01 03:36:59
  TRACK 229 AUDIO
    TITLE "0:"
    INDEX 01 03:38:32
  TRACK 230 AUDIO
    TITLE "2:cjc116_0314"
    INDEX 01 03:38:58
  TRACK 231 AUDIO
    TITLE "0:"
    INDEX 01 03:40:43
  TRACK 232 AUDIO
    TITLE "2:cjc116_0315"
    INDEX 01 03:41:05
  TRACK 233 AUDIO
    TITLE "0:"
    INDEX 01 03:41:70
  TRACK 234 AUDIO
    TITLE "2:cjc116_0316"
    INDEX 01 03:42:20
  TRACK 235 AUDIO
    TITLE "0:"
    INDEX 01 03:43:67
  TRACK 236 AUDIO
    TITLE "2:cjc116_0317"
    INDEX 01 03:44:23
  TRACK 237 AUDIO
    TITLE "0:"
    INDEX 01 03:45:46
  TRACK 238 AUDIO
    TITLE "2:cjc116_0318"
    INDEX 01 03:46:10
  TRACK 239 AUDIO
    TITLE "0:"
    INDEX 01 03:47:37
  TRACK 240 AUDIO
    TITLE "2:cjc116_0319"
    INDEX 01 03:47:61
  TRACK 241 AUDIO
    TITLE "0:"
    INDEX 01 03:49:40
  TRACK 242 AUDIO
    TITLE "2:cjc116_0320"
    INDEX 01 03:50:00
  TRACK 243 AUDIO
    TITLE "0:"
    INDEX 01 03:51:23
  TRACK 244 AUDIO
    TITLE "2:cjc116_0321"
    INDEX 01 03:51:58
  TRACK 245 AUDIO
    TITLE "0:"
    INDEX 01 03:52:64
  TRACK 246 AUDIO
    TITLE "2:cjc116_0322"
    INDEX 01 03:53:10
  TRACK 247 AUDIO
    TITLE "0:"
    INDEX 01 03:55:03
  TRACK 248 AUDIO
    TITLE "2:cjc116_0323"
    INDEX 01 03:55:39
  TRACK 249 AUDIO
    TITLE "0:"
    INDEX 01 03:56:71
  TRACK 250 AUDIO
    TITLE "2:cjc116_0324"
    INDEX 01 03:57:35
  TRACK 251 AUDIO
    TITLE "0:"
    INDEX 01 03:58:39
  TRACK 252 AUDIO
    TITLE "2:cjc116_0325"
    INDEX 01 03:58:54
  TRACK 253 AUDIO
    TITLE "0:"
    INDEX 01 04:00:24
  TRACK 254 AUDIO
    TITLE "2:cjc116_0326"
    INDEX 01 04:00:57
  TRACK 255 AUDIO
    TITLE "0:"
    INDEX 01 04:02:42
  TRACK 256 AUDIO
    TITLE "2:cjc116_0327"
    INDEX 01 04:03:07
  TRACK 257 AUDIO
    TITLE "0:"
    INDEX 01 04:03:65
  TRACK 258 AUDIO
    TITLE "2:cjc116_0328"
    INDEX 01 04:04:16
  TRACK 259 AUDIO
    TITLE "0:"
    INDEX 01 04:05:58
  TRACK 260 AUDIO
    TITLE "2:cjc116_0329"
    INDEX 01 04:06:05
  TRACK 261 AUDIO
    TITLE "0:"
    INDEX 01 04:07:16
  TRACK 262 AUDIO
    TITLE "2:cjc116_0330"
    INDEX 01 04:07:55
  TRACK 263 AUDIO
    TITLE "0:"
    INDEX 01 04:08:51
  TRACK 264 AUDIO
    TITLE "2:cjc116_0331"
    INDEX 01 04:08:65
  TRACK 265 AUDIO
    TITLE "0:"
    INDEX 01 04:10:09
  TRACK 266 AUDIO
    TITLE "2:cjc116_0332"
    INDEX 01 04:10:38
  TRACK 267 AUDIO
    TITLE "0:"
    INDEX 01 04:11:69
  TRACK 268 AUDIO
    TITLE "2:cjc116_0333"
    INDEX 01 04:12:31
  TRACK 269 AUDIO
    TITLE "0:"
    INDEX 01 04:13:34
  TRACK 270 AUDIO
    TITLE "2:cjc116_0334"
    INDEX 01 04:13:46
  TRACK 271 AUDIO
    TITLE "0:"
    INDEX 01 04:15:26
  TRACK 272 AUDIO
    TITLE "2:cjc116_0335"
    INDEX 01 04:15:45
  TRACK 273 AUDIO
    TITLE "0:"
    INDEX 01 04:17:11
  TRACK 274 AUDIO
    TITLE "2:cjc116_0336"
    INDEX 01 04:17:50
  TRACK 275 AUDIO
    TITLE "0:"
    INDEX 01 04:18:63
  TRACK 276 AUDIO
    TITLE "2:cjc116_0337"
    INDEX 01 04:19:02
  TRACK 277 AUDIO
    TITLE "0:"
    INDEX 01 04:20:70
  TRACK 278 AUDIO
    TITLE "2:cjc116_0338"
    INDEX 01 04:21:20
  TRACK 279 AUDIO
    TITLE "0:"
    INDEX 01 04:22:59
  TRACK 280 AUDIO
    TITLE "2:cjc116_0339"
    INDEX 01 04:23:23
  TRACK 281 AUDIO
    TITLE "0:"
    INDEX 01 04:24:26
  TRACK 282 AUDIO
    TITLE "2:cjc116_0340"
    INDEX 01 04:24:40
  TRACK 283 AUDIO
    TITLE "0:"
    INDEX 01 04:26:14
  TRACK 284 AUDIO
    TITLE "2:cjc116_0341"
    INDEX 01 04:26:39
  TRACK 285 AUDIO
    TITLE "0:"
    INDEX 01 04:28:32
  TRACK 286 AUDIO
    TITLE "2:cjc116_0342"
    INDEX 01 04:28:67
  TRACK 287 AUDIO
    TITLE "0:"
    INDEX 01 04:29:65
  TRACK 288 AUDIO
    TITLE "2:cjc116_0343"
    INDEX 01 04:30:06
  TRACK 289 AUDIO
    TITLE "0:"
    INDEX 01 04:31:56
  TRACK 290 AUDIO
    TITLE "2:cjc116_0344"
    INDEX 01 04:32:06
  TRACK 291 AUDIO
    TITLE "0:"
    INDEX 01 04:33:51
  TRACK 292 AUDIO
    TITLE "2:cjc116_0345"
    INDEX 01 04:34:11
  TRACK 293 AUDIO
    TITLE "0:"
    INDEX 01 04:35:40
  TRACK 294 AUDIO
    TITLE "2:cjc116_0346"
    INDEX 01 04:35:50
  TRACK 295 AUDIO
    TITLE "0:"
    INDEX 01 04:37:60
  TRACK 296 AUDIO
    TITLE "2:cjc116_0347"
    INDEX 01 04:38:13
  TRACK 297 AUDIO
    TITLE "0:"
    INDEX 01 04:40:06
  TRACK 298 AUDIO
    TITLE "2:cjc116_0348"
    INDEX 01 04:40:43
  TRACK 299 AUDIO
    TITLE "0:"
    INDEX 01 04:41:50
  TRACK 300 AUDIO
    TITLE "2:cjc116_0349"
    INDEX 01 04:41:66
  TRACK 301 AUDIO
    TITLE "0:"
    INDEX 01 04:44:00
  TRACK 302 AUDIO
    TITLE "2:cjc116_0350"
    INDEX 01 04:44:27
  TRACK 303 AUDIO
    TITLE "0:"
    INDEX 01 04:46:12
  TRACK 304 AUDIO
    TITLE "2:cjc116_0351"
    INDEX 01 04:46:50
  TRACK 305 AUDIO
    TITLE "0:"
    INDEX 01 04:47:47
  TRACK 306 AUDIO
    TITLE "2:cjc116_0352"
    INDEX 01 04:47:59
  TRACK 307 AUDIO
    TITLE "0:"
    INDEX 01 04:48:72
  TRACK 308 AUDIO
    TITLE "2:cjc116_0353"
    INDEX 01 04:49:19
  TRACK 309 AUDIO
    TITLE "0:"
    INDEX 01 04:50:51
  TRACK 310 AUDIO
    TITLE "2:cjc116_0354"
    INDEX 01 04:51:12
  TRACK 311 AUDIO
    TITLE "0:"
    INDEX 01 04:52:13
  TRACK 312 AUDIO
    TITLE "2:cjc116_0355"
    INDEX 01 04:52:27
  TRACK 313 AUDIO
    TITLE "0:"
    INDEX 01 04:54:04
  TRACK 314 AUDIO
    TITLE "2:cjc116_0356"
    INDEX 01 04:54:29
  TRACK 315 AUDIO
    TITLE "0:"
    INDEX 01 04:56:21
  TRACK 316 AUDIO
    TITLE "2:cjc116_0357"
    INDEX 01 04:56:58
  TRACK 317 AUDIO
    TITLE "0:"
    INDEX 01 04:57:69
  TRACK 318 AUDIO
    TITLE "2:cjc116_0358"
    INDEX 01 04:58:06
  TRACK 319 AUDIO
    TITLE "0:"
    INDEX 01 04:59:68
  TRACK 320 AUDIO
    TITLE "2:cjc116_0359"
    INDEX 01 05:00:26
  TRACK 321 AUDIO
    TITLE "0:"
    INDEX 01 05:02:11
  TRACK 322 AUDIO
    TITLE "2:cjc116_0360"
    INDEX 01 05:02:49
  TRACK 323 AUDIO
    TITLE "0:"
    INDEX 01 05:03:48
  TRACK 324 AUDIO
    TITLE "2:cjc116_0361"
    INDEX 01 05:03:62
  TRACK 325 AUDIO
    TITLE "0:"
    INDEX 01 05:05:18
  TRACK 326 AUDIO
    TITLE "2:cjc116_0362"
    INDEX 01 05:05:35
  TRACK 327 AUDIO
    TITLE "0:"
    INDEX 01 05:07:40
  TRACK 328 AUDIO
    TITLE "2:cjc116_0363"
    INDEX 01 05:07:73
  TRACK 329 AUDIO
    TITLE "0:"
    INDEX 01 05:08:73
  TRACK 330 AUDIO
    TITLE "2:cjc116_0364"
    INDEX 01 05:09:11
  TRACK 331 AUDIO
    TITLE "0:"
    INDEX 01 05:11:22
  TRACK 332 AUDIO
    TITLE "2:cjc116_0365"
    INDEX 01 05:11:61
  TRACK 333 AUDIO
    TITLE "0:"
    INDEX 01 05:14:26
  TRACK 334 AUDIO
    TITLE "2:cjc116_0366"
    INDEX 01 05:14:64
  TRACK 335 AUDIO
    TITLE "0:"
    INDEX 01 05:15:51
  TRACK 336 AUDIO
    TITLE "2:cjc116_0367"
    INDEX 01 05:16:04
  TRACK 337 AUDIO
    TITLE "0:"
    INDEX 01 05:18:30
  TRACK 338 AUDIO
    TITLE "2:cjc116_0368"
    INDEX 01 05:18:57
  TRACK 339 AUDIO
    TITLE "0:"
    INDEX 01 05:21:24
  TRACK 340 AUDIO
    TITLE "2:cjc116_0369"
    INDEX 01 05:21:64
  TRACK 341 AUDIO
    TITLE "0:"
    INDEX 01 05:22:67
  TRACK 342 AUDIO
    TITLE "2:cjc116_0370"
    INDEX 01 05:23:04
  TRACK 343 AUDIO
    TITLE "0:"
    INDEX 01 05:24:70
  TRACK 344 AUDIO
    TITLE "2:cjc116_0371"
    INDEX 01 05:25:26
  TRACK 345 AUDIO
    TITLE "0:"
    INDEX 01 05:26:57
  TRACK 346 AUDIO
    TITLE "2:cjc116_0372"
    INDEX 01 05:27:21
  TRACK 347 AUDIO
    TITLE "0:"
    INDEX 01 05:28:40
  TRACK 348 AUDIO
    TITLE "2:cjc116_0373"
    INDEX 01 05:28:54
  TRACK 349 AUDIO
    TITLE "0:"
    INDEX 01 05:30:35
  TRACK 350 AUDIO
    TITLE "2:cjc116_0374"
    INDEX 01 05:30:63
  TRACK 351 AUDIO
    TITLE "0:"
    INDEX 01 05:32:61
  TRACK 352 AUDIO
    TITLE "2:cjc116_0375"
    INDEX 01 05:33:22
  TRACK 353 AUDIO
    TITLE "0:"
    INDEX 01 05:34:43
  TRACK 354 AUDIO
    TITLE "2:cjc116_0376"
    INDEX 01 05:34:56
  TRACK 355 AUDIO
    TITLE "0:"
    INDEX 01 05:37:10
  TRACK 356 AUDIO
    TITLE "2:cjc116_0377"
    INDEX 01 05:37:41
  TRACK 357 AUDIO
    TITLE "0:"
    INDEX 01 05:39:44
  TRACK 358 AUDIO
    TITLE "2:cjc116_0378"
    INDEX 01 05:40:06
  TRACK 359 AUDIO
    TITLE "0:"
    INDEX 01 05:41:13
  TRACK 360 AUDIO
    TITLE "2:cjc116_0379"
    INDEX 01 05:41:35
  TRACK 361 AUDIO
    TITLE "0:"
    INDEX 01 05:43:67
  TRACK 362 AUDIO
    TITLE "2:cjc116_0380"
    INDEX 01 05:44:20
  TRACK 363 AUDIO
    TITLE "0:"
    INDEX 01 05:46:34
  TRACK 364 AUDIO
    TITLE "2:cjc116_0381"
    INDEX 01 05:46:73
  TRACK 365 AUDIO
    TITLE "0:"
    INDEX 01 05:48:06
  TRACK 366 AUDIO
    TITLE "2:cjc116_0382"
    INDEX 01 05:48:27
  TRACK 367 AUDIO
    TITLE "0:"
    INDEX 01 05:49:68
  TRACK 368 AUDIO
    TITLE "2:cjc116_0383"
    INDEX 01 05:50:42
  TRACK 369 AUDIO
    TITLE "0:"
    INDEX 01 05:52:21
  TRACK 370 AUDIO
    TITLE "2:cjc116_0384"
    INDEX 01 05:52:58
  TRACK 371 AUDIO
    TITLE "0:"
    INDEX 01 05:53:60
  TRACK 372 AUDIO
    TITLE "2:cjc116_0385"
    INDEX 01 05:54:00
  TRACK 373 AUDIO
    TITLE "0:"
    INDEX 01 05:56:05
  TRACK 374 AUDIO
    TITLE "2:cjc116_0386"
    INDEX 01 05:56:33
  TRACK 375 AUDIO
    TITLE "0:"
    INDEX 01 05:58:12
  TRACK 376 AUDIO
    TITLE "2:cjc116_0387"
    INDEX 01 05:58:51
  TRACK 377 AUDIO
    TITLE "0:"
    INDEX 01 05:59:62
  TRACK 378 AUDIO
    TITLE "2:cjc116_0388"
    INDEX 01 06:00:01
  TRACK 379 AUDIO
    TITLE "0:"
    INDEX 01 06:01:42
  TRACK 380 AUDIO
    TITLE "2:cjc116_0389"
    INDEX 01 06:01:69
  TRACK 381 AUDIO
    TITLE "0:"
    INDEX 01 06:03:44
